<?xml version="1.0" encoding="utf-8"?>
<!-- Generator: Adobe Illustrator 14.0.0, SVG Export Plug-In . SVG Version: 6.00 Build 43363)  -->
<!DOCTYPE svg PUBLIC "-//W3C//DTD SVG 1.1//EN" "http://www.w3.org/Graphics/SVG/1.1/DTD/svg11.dtd">
<svg version="1.1" id="Ebene_1" xmlns="http://www.w3.org/2000/svg" xmlns:xlink="http://www.w3.org/1999/xlink" x="0px" y="0px"
	 width="93.433px" height="42px" viewBox="0 0 93.433 42" enable-background="new 0 0 93.433 42" xml:space="preserve">
<g>
	<path d="M0,41.555V0.454c0,0,3.023,0,5.313,0c7.213,0,11.015,2.737,11.015,10.901c0,3.802-0.838,5.983-3.743,8.501
		c0,0,4.193,1.903,4.193,10.067c0,6.039-2.126,11.353-9.339,11.629H0V41.555z M6.042,6.438v10.96c1.116,0,4.472,0.168,4.472-5.482
		C10.514,6.269,7.159,6.438,6.042,6.438z M6.042,22.936V35.57c1.116,0,4.472,0.445,4.472-6.32S7.159,22.936,6.042,22.936z"/>
	<path d="M21.766,0.454h6.042v41.101h-6.042V0.454z"/>
	<path d="M44.479,41.555l-3.134-17.337h-1.621v17.337h-6.043V0.454h6.043c7.158,0,10.285,4.135,10.285,11.853
		c0,4.084-1.062,7.773-3.353,9.339l3.854,19.905h-6.035L44.479,41.555L44.479,41.555z M39.724,6.438v12.189
		c1.678,0,4.474-0.223,4.474-6.097C44.197,6.661,41.401,6.438,39.724,6.438z"/>
	<path d="M60.038,41.555h-4.754V0.454h4.754c11.185,0.055,12.026,4.472,12.026,20.577C72.064,37.082,71.22,41.5,60.038,41.555z
		 M61.327,35.516c4.248,0,4.524-1.062,4.472-14.539c0.053-13.424-0.224-14.485-4.472-14.485V35.516z"/>
	<path d="M84.991,0.003c7.269-0.168,8.44,6.32,8.44,10.906l-5.924,0.56c0-2.741-0.393-5.929-2.408-5.929
		c-1.562,0.055-2.065,1.735-2.065,4.084c0,2.796,2.404,5.924,4.753,9.339c2.797,4.195,5.646,8.273,5.646,12.689
		c0,5.481-1.789,10.348-8.389,10.348c-7.771,0-8.779-5.869-8.779-11.967l5.932-0.561c0,3.413,0.336,6.991,2.85,6.991
		c1.791,0,2.465-1.957,2.465-4.528c0-2.74-2.571-6.043-4.869-9.509c-2.85-4.194-5.534-8.388-5.534-12.805
		C77.104,5.149,79.286,0.117,84.991,0.003z"/>
</g>
</svg>
