<?xml version="1.0" encoding="utf-8"?>
<!-- Generator: Adobe Illustrator 14.0.0, SVG Export Plug-In . SVG Version: 6.00 Build 43363)  -->
<!DOCTYPE svg PUBLIC "-//W3C//DTD SVG 1.1//EN" "http://www.w3.org/Graphics/SVG/1.1/DTD/svg11.dtd">
<svg version="1.1" id="Ebene_1" xmlns="http://www.w3.org/2000/svg" xmlns:xlink="http://www.w3.org/1999/xlink" x="0px" y="0px"
	 width="129.241px" height="41.998px" viewBox="0 0 129.241 41.998" enable-background="new 0 0 129.241 41.998"
	 xml:space="preserve">
<g>
	<path d="M0,6.654V0.447h17.449v6.207h-5.706v34.902H5.705V6.654H0z"/>
	<path d="M31.997,41.556l-3.128-17.341h-1.626v17.341h-6.038V0.447h6.038c7.156,0,10.291,4.139,10.291,11.857
		c0,4.08-1.062,7.773-3.355,9.337l3.861,19.909h-6.043V41.556z M27.243,6.431V18.62c1.682,0,4.478-0.223,4.478-6.092
		C31.72,6.654,28.924,6.431,27.243,6.431z"/>
	<path d="M41.127,41.556L47.333,0.45h7.382l6.212,41.105h-5.874l-1.12-8.39h-5.813l-1.115,8.39H41.127z M51.364,13.812l-0.169-1.061
		h-0.339l-0.168,1.061l-1.733,12.98h4.141L51.364,13.812z"/>
	<path d="M79.499,6.654h-8.333V17.45h5.598v6.209h-5.598v17.896h-6.037V0.447c0,0,0.614,0,14.37,0V6.654z"/>
	<path d="M97.74,6.654h-8.333V17.45h5.597v6.209h-5.597v17.896h-6.038V0.447c0,0,0.613,0,14.371,0V6.654z"/>
	<path d="M101.612,0.447h6.035v41.104h-6.035V0.447z"/>
	<path d="M129.241,27.456v5.646c0,0,0.055,8.896-8.057,8.896c-8.108,0-8.051-8.896-8.051-8.896V8.894c0,0-0.061-8.893,8.051-8.893
		c8.108,0,8.057,8.893,8.057,8.893v5.646h-5.649V8.894c0,0,0.223-3.023-2.291-3.023c-2.127,0-2.127,3.023-2.127,3.023v24.208
		c0,0,0,3.021,2.127,3.021c2.514,0,2.291-3.021,2.291-3.021v-5.646H129.241z"/>
</g>
</svg>
