<?xml version="1.0" encoding="utf-8"?>
<!-- Generator: Adobe Illustrator 14.0.0, SVG Export Plug-In . SVG Version: 6.00 Build 43363)  -->
<!DOCTYPE svg PUBLIC "-//W3C//DTD SVG 1.1//EN" "http://www.w3.org/Graphics/SVG/1.1/DTD/svg11.dtd">
<svg version="1.1" id="Ebene_1" xmlns="http://www.w3.org/2000/svg" xmlns:xlink="http://www.w3.org/1999/xlink" x="0px" y="0px"
	 width="167.738px" height="42px" viewBox="0 0 167.738 42" enable-background="new 0 0 167.738 42" xml:space="preserve">
<g>
	<path d="M-0.001,0.447h6.043v35.515h7.996v5.593H-0.001V0.447z"/>
	<path d="M17.903,0.447h6.043v41.105h-6.043V0.447z"/>
	<path d="M39.496,15.214v-6.32c0,0,0.109-3.019-2.013-3.019c-2.126,0-2.013,3.019-2.013,3.019v24.719c0,0-0.113,3.014,2.013,3.014
		c2.122,0,2.013-3.014,2.013-3.014v-7.441h-2.403v-5.086h8.441v20.471h-3.579l-0.724-1.959C40.111,40.99,38.436,42,36.532,42
		c-7.664,0-7.104-8.889-7.104-8.889V8.894c0,0-0.056-8.893,8.055-8.893c8.111,0,8.051,8.893,8.051,8.893v6.32H39.496z"/>
	<path d="M62.1,23.66h-4.694v17.896h-6.043c0,0,0-40.825,0-41.106h6.043v17H62.1V0.447h6.043v41.105H62.1V23.66z"/>
	<path d="M71.899,6.654V0.447h17.444v6.207h-5.7v34.901H77.6V6.654H71.899z"/>
	<path d="M99.475,20.132l-0.501-1.899h-0.337v1.899v21.42H93.1V0.447h5.369l5.875,21.419l0.5,1.899h0.338v-1.899V0.447h5.537v41.105
		h-5.369L99.475,20.132z"/>
	<path d="M116.601,0.447h6.041v41.105h-6.041V0.447z"/>
	<path d="M134.892,20.132l-0.502-1.899h-0.336v1.899v21.42h-5.537V0.447h5.369l5.873,21.419l0.502,1.899h0.336v-1.899V0.447h5.537
		v41.105h-5.369L134.892,20.132z"/>
	<path d="M161.698,15.214v-6.32c0,0,0.108-3.019-2.013-3.019c-2.127,0-2.014,3.019-2.014,3.019v24.719c0,0-0.113,3.014,2.014,3.014
		c2.121,0,2.013-3.014,2.013-3.014v-7.441h-2.404v-5.086h8.443v20.471h-3.58l-0.726-1.959c-1.119,1.396-2.795,2.402-4.698,2.402
		c-7.662,0-7.104-8.889-7.104-8.889V8.894c0,0-0.055-8.893,8.057-8.893c8.107,0,8.053,8.893,8.053,8.893v6.32H161.698z"/>
</g>
</svg>
