<?xml version="1.0" encoding="utf-8"?>
<!-- Generator: Adobe Illustrator 14.0.0, SVG Export Plug-In . SVG Version: 6.00 Build 43363)  -->
<!DOCTYPE svg PUBLIC "-//W3C//DTD SVG 1.1//EN" "http://www.w3.org/Graphics/SVG/1.1/DTD/svg11.dtd">
<svg version="1.1" id="Ebene_1" xmlns="http://www.w3.org/2000/svg" xmlns:xlink="http://www.w3.org/1999/xlink" x="0px" y="0px"
	 width="72.448px" height="42px" viewBox="0 0 72.448 42" enable-background="new 0 0 72.448 42" xml:space="preserve">
<g>
	<path d="M6.041,0.454v13.697v0.674h0.225l0.275-0.674l5.036-13.697h5.87L11.91,13.987l6.268,27.566h-5.874L8.109,23.658
		L7.941,22.82H7.778L7.44,23.658l-1.397,3.355V41.55H0.001c0-12.856,0-41.1,0-41.1h6.042L6.041,0.454L6.041,0.454z"/>
	<path d="M22.379,0.454h6.042v41.101h-6.042V0.454z"/>
	<path d="M39.054,41.555h-4.753V0.454h4.753c11.184,0.055,12.021,4.472,12.021,20.577C51.075,37.082,50.238,41.499,39.054,41.555z
		 M40.339,35.516c4.254,0,4.529-1.062,4.477-14.542c0.057-13.419-0.223-14.48-4.477-14.48V35.516z"/>
	<path d="M64.007,0.003c7.268-0.168,8.439,6.32,8.439,10.906l-5.93,0.556c0-2.737-0.393-5.924-2.402-5.924
		c-1.564,0.055-2.066,1.735-2.066,4.084c0,2.796,2.402,5.924,4.754,9.334c2.797,4.199,5.646,8.279,5.646,12.695
		C72.448,37.134,70.659,42,64.06,42c-7.777,0-8.777-5.874-8.777-11.967l5.928-0.561c0,3.408,0.332,6.987,2.852,6.987
		c1.785,0,2.459-1.958,2.459-4.522c0-2.742-2.57-6.043-4.861-9.508c-2.852-4.202-5.537-8.391-5.537-12.808
		C56.12,5.149,58.302,0.117,64.007,0.003z"/>
</g>
</svg>
