<?xml version="1.0" encoding="utf-8"?>
<!-- Generator: Adobe Illustrator 14.0.0, SVG Export Plug-In . SVG Version: 6.00 Build 43363)  -->
<!DOCTYPE svg PUBLIC "-//W3C//DTD SVG 1.1//EN" "http://www.w3.org/Graphics/SVG/1.1/DTD/svg11.dtd">
<svg version="1.1" id="Ebene_1" xmlns="http://www.w3.org/2000/svg" xmlns:xlink="http://www.w3.org/1999/xlink" x="0px" y="0px"
	 width="80.901px" height="42px" viewBox="0 0 80.901 42" enable-background="new 0 0 80.901 42" xml:space="preserve">
<g>
	<path d="M4.755,41.555H0V0.45h4.754C15.937,0.509,16.78,4.926,16.78,21.032C16.781,37.082,15.937,41.499,4.755,41.555z
		 M6.043,35.516c4.248,0,4.526-1.062,4.471-14.542c0.055-13.419-0.223-14.48-4.471-14.48V35.516z"/>
	<path d="M29.875,42c-8.108,0-8.055-8.889-8.055-8.889V8.896c0,0-0.056-8.893,8.055-8.893c8.111,0,8.052,8.893,8.052,8.893v24.215
		C37.927,33.111,37.986,42,29.875,42z M29.875,5.877c-2.125,0-2.012,3.019-2.012,3.019v24.215c0,0-0.113,3.02,2.012,3.02
		c2.123,0,2.015-3.02,2.015-3.02V8.896C31.888,8.896,31.999,5.877,29.875,5.877z"/>
	<path d="M53.093,15.217v-6.32c0,0,0.109-3.019-2.014-3.019c-2.121,0-2.012,3.019-2.012,3.019v24.717c0,0-0.109,3.019,2.012,3.019
		c2.123,0,2.014-3.019,2.014-3.019v-7.438H50.69v-5.091h8.445v20.47h-3.58l-0.729-1.96C53.712,40.994,52.036,42,50.134,42
		c-7.666,0-7.104-8.889-7.104-8.889V8.896c0,0-0.059-8.893,8.051-8.893s8.055,8.893,8.055,8.893v6.32L53.093,15.217L53.093,15.217z"
		/>
	<path d="M72.458,0.003c7.268-0.168,8.441,6.32,8.441,10.906l-5.93,0.56c0-2.741-0.395-5.929-2.402-5.929
		c-1.566,0.055-2.066,1.735-2.066,4.08c0,2.795,2.404,5.928,4.754,9.339c2.795,4.193,5.646,8.279,5.646,12.695
		c0,5.479-1.795,10.346-8.391,10.346c-7.775,0-8.777-5.869-8.777-11.967l5.93-0.561c0,3.408,0.336,6.987,2.852,6.987
		c1.785,0,2.459-1.953,2.459-4.522c0-2.742-2.568-6.043-4.863-9.508c-2.85-4.197-5.537-8.391-5.537-12.812
		C64.571,5.149,66.747,0.117,72.458,0.003z"/>
</g>
</svg>
