<?xml version="1.0" encoding="utf-8"?>
<!-- Generator: Adobe Illustrator 14.0.0, SVG Export Plug-In . SVG Version: 6.00 Build 43363)  -->
<!DOCTYPE svg PUBLIC "-//W3C//DTD SVG 1.1//EN" "http://www.w3.org/Graphics/SVG/1.1/DTD/svg11.dtd">
<svg version="1.1" id="Ebene_1" xmlns="http://www.w3.org/2000/svg" xmlns:xlink="http://www.w3.org/1999/xlink" x="0px" y="0px"
	 width="246.847px" height="42px" viewBox="0 0 246.847 42" enable-background="new 0 0 246.847 42" xml:space="preserve">
<g>
	<path d="M0,41.555L6.207,0.451h7.381l6.207,41.104h-5.869l-1.121-8.389H6.99l-1.12,8.389H0z M10.232,13.814l-0.168-1.061H9.731
		l-0.168,1.061L7.828,26.792h4.14L10.232,13.814z"/>
	<path d="M24.001,0.45h6.043v35.513h7.996v5.592H24.001V0.45z"/>
	<path d="M40.791,41.555L46.997,0.45h7.382l6.206,41.104h-5.87l-1.12-8.389h-5.814l-1.12,8.389H40.791z M51.022,13.814l-0.168-1.061
		h-0.333l-0.168,1.061l-1.735,12.978h4.14L51.022,13.814z"/>
	<path d="M75.593,41.555L72.46,24.219h-1.621v17.336h-6.043V0.45h6.042c7.158,0,10.287,4.139,10.287,11.857
		c0,4.08-1.062,7.773-3.356,9.339l3.861,19.904h-6.037V41.555z M70.839,6.433v12.194c1.676,0,4.473-0.223,4.473-6.097
		C75.312,6.656,72.515,6.433,70.839,6.433z"/>
	<path d="M96.407,41.555l-3.862-25.837l-0.223-1.735h-0.337v1.735v25.837h-5.593V0.45h7.382l3.579,18.792l0.281,2.181h0.109
		l0.282-2.181l3.582-18.792h7.381v41.104h-5.592V15.718v-1.735h-0.338l-0.223,1.735l-3.856,25.837H96.407z"/>
	<path d="M132.379,0.003c7.271-0.168,8.442,6.32,8.442,10.906l-5.924,0.56c0-2.741-0.395-5.929-2.404-5.929
		c-1.566,0.055-2.072,1.735-2.072,4.08c0,2.795,2.404,5.928,4.754,9.339c2.796,4.193,5.646,8.279,5.646,12.695
		c0,5.479-1.791,10.346-8.39,10.346c-7.771,0-8.778-5.869-8.778-11.967l5.929-0.561c0,3.408,0.337,6.987,2.851,6.987
		c1.789,0,2.466-1.953,2.466-4.522c0-2.742-2.574-6.043-4.869-9.508c-2.852-4.197-5.537-8.391-5.537-12.812
		C124.494,5.149,126.673,0.117,132.379,0.003z"/>
	<path d="M152.58,13.591l0.169,0.392h0.108l0.168-0.392l3.02-13.141h5.929l-6.149,23.601v17.504h-6.039V24.051L143.63,0.45h5.93
		L152.58,13.591z"/>
	<path d="M173.506,0.003c7.272-0.168,8.442,6.32,8.442,10.906l-5.924,0.56c0-2.741-0.395-5.929-2.404-5.929
		c-1.566,0.055-2.072,1.735-2.072,4.08c0,2.795,2.404,5.928,4.754,9.339c2.796,4.193,5.646,8.279,5.646,12.695
		c0,5.479-1.791,10.346-8.391,10.346c-7.771,0-8.777-5.869-8.777-11.967l5.929-0.561c0,3.408,0.337,6.987,2.851,6.987
		c1.79,0,2.465-1.953,2.465-4.522c0-2.742-2.572-6.043-4.867-9.508c-2.853-4.197-5.537-8.391-5.537-12.812
		C165.621,5.149,167.8,0.117,173.506,0.003z"/>
	<path d="M184.48,6.656V0.45h17.443v6.207h-5.699v34.897h-6.043V6.656H184.48z"/>
	<path d="M205.681,0.45h13.814v6.207h-7.771v10.796h5.594v6.599h-5.594V35.35h7.771v6.205h-13.814V0.45z"/>
	<path d="M234.269,41.555l-3.861-25.837l-0.225-1.735h-0.336v1.735v25.837h-5.592V0.45h7.381l3.58,18.792l0.281,2.181h0.109
		l0.279-2.181l3.58-18.792h7.381v41.104h-5.592V15.718v-1.735h-0.338l-0.225,1.735l-3.854,25.837H234.269z"/>
</g>
</svg>
