<?xml version="1.0" encoding="utf-8"?>
<!-- Generator: Adobe Illustrator 14.0.0, SVG Export Plug-In . SVG Version: 6.00 Build 43363)  -->
<!DOCTYPE svg PUBLIC "-//W3C//DTD SVG 1.1//EN" "http://www.w3.org/Graphics/SVG/1.1/DTD/svg11.dtd">
<svg version="1.1" id="Ebene_1" xmlns="http://www.w3.org/2000/svg" xmlns:xlink="http://www.w3.org/1999/xlink" x="0px" y="0px"
	 width="239.586px" height="42px" viewBox="0 0 239.586 42" enable-background="new 0 0 239.586 42" xml:space="preserve">
<g>
	<path d="M16.108,27.461v5.646c0,0,0.059,8.894-8.051,8.894C-0.053,42,0,33.107,0,33.107V8.896c0,0-0.055-8.893,8.058-8.893
		c8.107,0,8.051,8.893,8.051,8.893v5.646h-5.646V8.896c0,0,0.226-3.023-2.295-3.023c-2.122,0-2.122,3.023-2.122,3.023v24.211
		c0,0,0,3.019,2.122,3.019c2.521,0,2.295-3.019,2.295-3.019v-5.646H16.108z"/>
	<path d="M28.817,42c-8.11,0-8.059-8.895-8.059-8.895V8.896c0,0-0.054-8.893,8.059-8.893c8.106,0,8.05,8.893,8.05,8.893v24.211
		C36.867,33.107,36.926,42,28.817,42z M28.817,5.873c-2.127,0-2.013,3.023-2.013,3.023v24.211c0,0-0.114,3.019,2.013,3.019
		c2.122,0,2.013-3.019,2.013-3.019V8.896C30.829,8.896,30.938,5.873,28.817,5.873z"/>
	<path d="M48.734,20.134l-0.501-1.903h-0.337v1.903v21.419h-5.537V0.45h5.368l5.874,21.419l0.501,1.897h0.337V21.87V0.45h5.537
		v41.104h-5.368L48.734,20.134z"/>
	<path d="M73.359,0.003c7.271-0.168,8.439,6.32,8.439,10.906l-5.924,0.556c0-2.737-0.392-5.924-2.401-5.924
		c-1.566,0.055-2.072,1.73-2.072,4.08c0,2.795,2.404,5.928,4.754,9.339c2.796,4.194,5.646,8.279,5.646,12.695
		c0,5.48-1.79,10.346-8.388,10.346c-7.771,0-8.779-5.873-8.779-11.967l5.932-0.56c0,3.409,0.337,6.987,2.851,6.987
		c1.79,0,2.463-1.957,2.463-4.528c0-2.735-2.57-6.039-4.868-9.504c-2.851-4.199-5.534-8.393-5.534-12.809
		C65.472,5.149,67.653,0.113,73.359,0.003z"/>
	<path d="M84.332,6.656V0.45h17.444v6.207h-5.701v34.897h-6.042V6.656H84.332z"/>
	<path d="M116.33,41.555l-3.133-17.336h-1.621v17.336h-6.043V0.45h6.042c7.158,0,10.287,4.139,10.287,11.857
		c0,4.08-1.062,7.773-3.356,9.339l3.861,19.905h-6.037V41.555z M111.576,6.433v12.189c1.676,0,4.472-0.223,4.472-6.092
		C116.048,6.656,113.252,6.433,111.576,6.433z"/>
	<path d="M143.182,0.45v32.657c0,0,0.055,8.894-8.054,8.894c-8.107,0-8.055-8.894-8.055-8.894V0.45h6.037v32.657
		c0,0-0.109,3.021,2.018,3.021c2.122,0,2.016-3.021,2.016-3.021V0.45H143.182z"/>
	<path d="M164.719,27.461v5.646c0,0,0.063,8.894-8.051,8.894c-8.104,0-8.051-8.894-8.051-8.894V8.896c0,0-0.055-8.893,8.051-8.893
		c8.114,0,8.051,8.893,8.051,8.893v5.646h-5.646V8.896c0,0,0.228-3.023-2.295-3.023c-2.122,0-2.122,3.023-2.122,3.023v24.211
		c0,0,0,3.019,2.122,3.019c2.521,0,2.295-3.019,2.295-3.019v-5.646H164.719z"/>
	<path d="M167.653,6.656V0.45h17.438v6.207h-5.698v34.897h-6.038V6.656H167.653z"/>
	<path d="M188.854,0.45h6.037v41.104h-6.037V0.45z"/>
	<path d="M208.433,42c-8.114,0-8.062-8.895-8.062-8.895V8.896c0,0-0.055-8.893,8.062-8.893c8.104,0,8.051,8.893,8.051,8.893v24.211
		C216.484,33.107,216.538,42,208.433,42z M208.433,5.873c-2.134,0-2.016,3.023-2.016,3.023v24.211c0,0-0.118,3.019,2.016,3.019
		c2.122,0,2.013-3.019,2.013-3.019V8.896C210.446,8.896,210.555,5.873,208.433,5.873z"/>
	<path d="M228.35,20.134l-0.501-1.903h-0.34v1.903v21.419h-5.534V0.45h5.361l5.874,21.419l0.501,1.896h0.337V21.87V0.45h5.537
		v41.104h-5.361L228.35,20.134z"/>
</g>
</svg>
