<svg xmlns="http://www.w3.org/2000/svg" style="display: none;">
  
    <symbol id="icon-code" viewBox="0 0 512 512">
      <path d="m158 400l-14 14c-2 2-4 3-7 3-2 0-5-1-6-3l-134-133c-1-2-2-4-2-7 0-2 1-4 2-6l134-133c1-2 4-3 6-3 3 0 5 1 7 3l14 14c2 2 3 4 3 6 0 3-1 5-3 7l-112 112 112 113c2 1 3 4 3 6 0 3-1 5-3 7z m169-305l-107 369c0 2-2 4-4 5-2 2-5 2-7 1l-18-5c-2-1-4-2-5-4-1-2-2-5-1-7l107-369c0-3 2-4 4-6 2-1 5-1 7 0l18 4c2 1 4 3 5 5 1 2 2 4 1 7z m188 186l-134 133c-1 2-4 3-6 3-3 0-5-1-7-3l-14-14c-2-2-3-4-3-7 0-2 1-5 3-6l112-113-112-112c-2-2-3-4-3-7 0-2 1-4 3-6l14-14c2-2 4-3 7-3 2 0 5 1 6 3l134 133c1 2 2 4 2 6 0 3-1 5-2 7z"/>
    </symbol>
  
    <symbol id="icon-github" viewBox="0 0 512 512">
      <path d="m475 256c0 48-14 91-41 129-28 38-64 65-109 79-5 1-8 1-11-2-2-2-3-5-3-8l0-61c0-18-5-32-15-40 11-1 20-3 29-5 9-3 18-6 27-11 9-6 17-12 23-19 6-8 11-18 15-30 4-13 6-27 6-43 0-23-8-43-23-59 7-18 7-37-2-59-5-1-13 0-23 4-10 3-19 8-26 12l-11 7c-18-5-36-7-55-7-19 0-37 2-55 7-3-2-7-5-12-8-5-3-13-6-24-11-11-4-19-5-24-4-9 22-9 41-2 59-15 16-23 36-23 59 0 16 2 30 6 42 4 13 9 23 15 30 6 8 14 14 23 20 9 5 18 8 27 11 8 2 18 4 29 5-8 7-12 17-14 29-4 2-8 4-13 5-4 1-10 1-16 1-6 0-13-2-19-6-6-4-11-10-16-18-3-6-8-11-14-15-5-4-10-6-14-7l-5-1c-4 0-7 1-9 2-1 1-2 2-1 3 0 1 1 3 2 4 2 1 3 2 4 3l2 2c4 2 8 5 13 11 4 5 7 10 9 14l2 7c3 7 7 13 13 17 6 5 12 8 19 9 7 1 14 2 20 2 6 0 12 0 16-1l6-1c0 7 0 16 1 25 0 10 0 15 0 16 0 3-2 6-4 8-2 3-6 3-11 2-45-14-81-41-109-79-27-38-41-81-41-129 0-40 9-77 29-110 20-34 46-60 80-80 33-20 70-29 110-29 40 0 77 9 110 29 34 20 60 46 80 80 20 33 29 70 29 110z"/>
    </symbol>
  
    <symbol id="icon-home" viewBox="0 0 512 512">
      <path d="m421 283l0 138c0 5-2 9-6 12-3 4-8 6-13 6l-109 0 0-110-74 0 0 110-109 0c-5 0-10-2-13-6-4-3-6-7-6-12l0-138c0 0 0 0 0 0 0-1 0-1 0-1l164-136 165 136c0 0 0 1 0 1z m63-19l-17 21c-2 2-4 3-6 3l-1 0c-3 0-5-1-6-2l-198-165-198 165c-2 2-4 2-7 2-2 0-4-1-6-3l-17-21c-2-2-2-4-2-7 0-3 1-5 3-6l205-171c6-5 14-8 22-8 8 0 16 3 22 8l69 58 0-56c0-2 1-5 3-6 2-2 4-3 7-3l54 0c3 0 5 1 7 3 2 1 3 4 3 6l0 117 62 52c2 1 3 3 3 6 0 3 0 5-2 7z"/>
    </symbol>
  
    <symbol id="icon-at" viewBox="0 0 512 512">
      <path d="m314 221c0-20-5-36-15-48-10-11-24-17-42-17-12 0-24 3-36 8-11 6-22 14-31 25-9 10-17 23-23 39-6 16-8 33-8 51 0 21 5 38 15 50 10 11 24 17 43 17 18 0 35-6 50-19 15-13 27-28 35-47 8-19 12-39 12-59z m161 35c0 21-3 40-10 56-7 17-17 30-28 39-12 9-25 16-38 21-13 5-27 8-41 8-1 0-3 0-5 1-2 1-3 2-4 2-19 0-32-5-41-15-5-7-8-14-9-24-10 13-23 23-38 31-15 9-32 13-50 13-30 0-54-9-71-27-17-18-25-44-25-77 0-30 6-58 19-83 12-25 29-46 51-60 21-15 45-22 70-22 17 0 31 3 44 10 13 6 23 16 31 28l0-5 3-16c1-1 1-3 2-4 1-1 2-1 3-1l33 0c1 0 3 1 4 3 1 1 1 2 1 4l-34 176c-1 4-2 9-2 13 0 8 1 13 4 15 2 3 6 4 13 4 5 0 10-1 16-2 5 0 12-3 21-6 8-4 15-9 22-15 6-6 11-14 16-25 5-12 7-25 7-39 0-56-17-100-50-134-33-33-77-49-133-49-25 0-48 5-71 14-23 10-42 23-58 39-17 17-30 36-39 59-10 22-15 46-15 71 0 24 5 48 15 71 9 22 22 42 39 58 16 16 35 29 58 39 23 10 46 14 71 14 43 0 82-13 116-41 2-1 4-2 7-2 2 0 4 1 6 3l11 14c2 3 2 5 2 7 0 3-1 5-3 7-20 15-41 28-65 36-24 9-49 13-74 13-30 0-58-6-85-17-27-12-51-28-70-47-20-20-35-43-47-70-12-27-17-56-17-85 0-30 5-59 17-86 12-27 27-50 47-70 19-19 43-35 70-46 27-12 55-18 85-18 66 0 118 20 159 61 40 40 60 93 60 159z"/>
    </symbol>
  
    <symbol id="icon-arrow-circle-o-down" viewBox="0 0 512 512">
      <path d="m357 265c0 2-1 5-3 7l-91 91c-3 2-5 3-7 3-2 0-4-1-7-3l-91-91c-3-3-4-7-2-10 2-4 4-6 9-6l54 0 0-101c0-2 1-4 3-6 2-2 4-3 7-3l54 0c3 0 5 1 7 3 2 2 3 4 3 6l0 101 54 0c3 0 5 1 7 3 2 1 3 3 3 6z m-101-164c-28 0-54 7-78 20-24 14-43 33-57 57-13 24-20 50-20 78 0 28 7 54 20 78 14 24 33 43 57 57 24 13 50 20 78 20 28 0 54-7 78-20 24-14 43-33 57-57 13-24 20-50 20-78 0-28-7-54-20-78-14-24-33-43-57-57-24-13-50-20-78-20z m219 155c0 40-9 77-29 110-20 34-46 60-80 80-33 20-70 29-110 29-40 0-77-9-110-29-34-20-60-46-80-80-20-33-29-70-29-110 0-40 9-77 29-110 20-34 46-60 80-80 33-20 70-29 110-29 40 0 77 9 110 29 34 20 60 46 80 80 20 33 29 70 29 110z"/>
    </symbol>
  
    <symbol id="icon-tags" viewBox="0 0 512 512">
      <path d="m110 128c0-10-4-19-11-26-7-7-16-11-26-11-10 0-19 4-26 11-7 7-10 16-10 26 0 10 3 19 10 26 7 7 16 11 26 11 10 0 19-4 26-11 7-7 11-16 11-26z m305 165c0 10-4 18-11 25l-140 141c-8 7-16 10-26 10-10 0-19-3-26-10l-204-205c-8-7-14-16-19-29-5-12-7-23-7-33l0-119c0-10 3-18 11-26 7-7 15-10 25-10l119 0c10 0 21 2 34 7 12 5 21 11 29 19l204 204c7 7 11 16 11 26z m109 0c0 10-3 18-10 25l-141 141c-7 7-16 10-26 10-6 0-12-1-16-4-5-2-10-7-16-12l135-135c7-7 10-15 10-25 0-10-3-19-10-26l-205-204c-7-8-17-14-29-19-12-5-23-7-33-7l64 0c10 0 21 2 33 7 12 5 22 11 29 19l205 204c7 7 10 16 10 26z"/>
    </symbol>
  
</svg>
